<svg xmlns="http://www.w3.org/2000/svg" xmlns:xlink="http://www.w3.org/1999/xlink" width="158" height="154" viewBox="0 0 158 154">
    <defs>
        <path id="a" d="M3.732 37.724l-3.28-3.321A1.559 1.559 0 0 1 0 33.306V14.494c0-.412.165-.808.457-1.102L13.342.476a1.6 1.6 0 0 1 1.133-.468h19.022c.423 0 .829.166 1.127.462l13.043 12.92c.297.295.464.694.464 1.11v18.8c0 .414-.165.81-.459 1.104l-3.317 3.32H3.732z"/>
        <path id="c" d="M10.632 44.711L.452 34.403A1.559 1.559 0 0 1 0 33.306V14.494c0-.412.165-.808.457-1.102L13.342.476a1.6 1.6 0 0 1 1.133-.468h19.022c.423 0 .829.166 1.127.462l13.043 12.92c.297.295.464.694.464 1.11v18.8c0 .414-.165.81-.459 1.104L37.373 44.711H10.632z"/>
        <path id="e" d="M14.475.008a1.6 1.6 0 0 0-1.133.468L.457 13.392c-.292.294-.457.69-.457 1.102v18.812c0 .41.162.804.452 1.097L13.34 47.455c.3.303.71.474 1.139.474h19.013a1.6 1.6 0 0 0 1.132-.467l13.047-13.058a1.56 1.56 0 0 0 .459-1.103V14.5c0-.416-.167-.815-.464-1.11L34.624.47a1.602 1.602 0 0 0-1.127-.462H14.475z"/>
        <path id="g" d="M14.475.008a1.6 1.6 0 0 0-1.133.468L.457 13.392c-.292.294-.457.69-.457 1.102v18.812c0 .41.162.804.452 1.097L13.34 47.455c.3.303.71.474 1.139.474h19.013a1.6 1.6 0 0 0 1.132-.467l13.047-13.058a1.56 1.56 0 0 0 .459-1.103V14.5c0-.416-.167-.815-.464-1.11L34.624.47a1.602 1.602 0 0 0-1.127-.462H14.475z"/>
        <path id="i" d="M14.475.008a1.6 1.6 0 0 0-1.133.468L.457 13.392c-.292.294-.457.69-.457 1.102v18.812c0 .41.162.804.452 1.097L13.34 47.455c.3.303.71.474 1.139.474h19.013a1.6 1.6 0 0 0 1.132-.467l13.047-13.058a1.56 1.56 0 0 0 .459-1.103V14.5c0-.416-.167-.815-.464-1.11L34.624.47a1.602 1.602 0 0 0-1.127-.462H14.475z"/>
        <path id="k" d="M14.475.008a1.6 1.6 0 0 0-1.133.468L.457 13.392c-.292.294-.457.69-.457 1.102v18.812c0 .41.162.804.452 1.097L13.34 47.455c.3.303.71.474 1.139.474h19.013a1.6 1.6 0 0 0 1.132-.467l13.047-13.058a1.56 1.56 0 0 0 .459-1.103V14.5c0-.416-.167-.815-.464-1.11L34.624.47a1.602 1.602 0 0 0-1.127-.462H14.475z"/>
        <path id="m" d="M14.475.008a1.6 1.6 0 0 0-1.133.468L.457 13.392c-.292.294-.457.69-.457 1.102v18.812c0 .41.162.804.452 1.097L13.34 47.455c.3.303.71.474 1.139.474h19.013a1.6 1.6 0 0 0 1.132-.467l13.047-13.058a1.56 1.56 0 0 0 .459-1.103V14.5c0-.416-.167-.815-.464-1.11L34.624.47a1.602 1.602 0 0 0-1.127-.462H14.475z"/>
        <path id="o" d="M14.475.008a1.6 1.6 0 0 0-1.133.468L.457 13.392c-.292.294-.457.69-.457 1.102v18.812c0 .41.162.804.452 1.097L13.34 47.455c.3.303.71.474 1.139.474h19.013a1.6 1.6 0 0 0 1.132-.467l13.047-13.058a1.56 1.56 0 0 0 .459-1.103V14.5c0-.416-.167-.815-.464-1.11L34.624.47a1.602 1.602 0 0 0-1.127-.462H14.475z"/>
        <path id="q" d="M14.475.008a1.6 1.6 0 0 0-1.133.468L.457 13.392c-.292.294-.457.69-.457 1.102v18.812c0 .41.162.804.452 1.097L13.34 47.455c.3.303.71.474 1.139.474h19.013a1.6 1.6 0 0 0 1.132-.467l13.047-13.058a1.56 1.56 0 0 0 .459-1.103V14.5c0-.416-.167-.815-.464-1.11L34.624.47a1.602 1.602 0 0 0-1.127-.462H14.475z"/>
        <path id="s" d="M8.668 5.161l-8.21 8.23c-.293.295-.458.691-.458 1.103v18.812c0 .41.162.804.452 1.097L13.34 47.455c.3.303.71.474 1.139.474h19.013a1.6 1.6 0 0 0 1.132-.467l13.047-13.058a1.56 1.56 0 0 0 .459-1.103V14.5c0-.416-.167-.815-.464-1.11L39.36 5.162H8.668z"/>
        <path id="u" d="M1.698 12.148l-1.24 1.244c-.293.294-.458.69-.458 1.102v18.812c0 .41.162.804.452 1.097L13.34 47.455c.3.303.71.474 1.139.474h19.013a1.6 1.6 0 0 0 1.132-.467l13.047-13.058a1.56 1.56 0 0 0 .459-1.103V14.5c0-.416-.167-.815-.464-1.11l-1.254-1.242H1.698z"/>
        <path id="w" d="M0 19.136v14.17c0 .41.162.804.452 1.097L13.34 47.455c.3.303.71.474 1.139.474h19.013a1.6 1.6 0 0 0 1.132-.467l13.047-13.058a1.56 1.56 0 0 0 .459-1.103V19.136H0z"/>
        <path id="y" d="M0 26.123v7.183c0 .41.162.804.452 1.097L13.34 47.455c.3.303.71.474 1.139.474h19.013a1.6 1.6 0 0 0 1.132-.467l13.047-13.058a1.56 1.56 0 0 0 .459-1.103v-7.178H0z"/>
        <path id="A" d="M0 33.11v.196c0 .41.162.804.452 1.097L13.34 47.455c.3.303.71.474 1.139.474h19.013a1.6 1.6 0 0 0 1.132-.467l13.047-13.058a1.56 1.56 0 0 0 .459-1.103v-.191H0z"/>
        <path id="C" d="M6.074 40.097l7.267 7.358c.3.303.71.474 1.139.474h19.013a1.6 1.6 0 0 0 1.132-.467l7.36-7.365H6.074z"/>
        <path id="E" d="M12.974 47.084l.367.37c.3.304.71.475 1.139.475h19.013a1.6 1.6 0 0 0 1.132-.467l.377-.378H12.974z"/>
    </defs>
    <g fill="none" fill-rule="evenodd">
        <path fill="#EFEFEF" stroke="#DDD" d="M.5.5h156.711v153H.5z"/>
        <path fill="#777" d="M64.962 88.645h26.744c.43 0 .841-.167 1.145-.465l8.51-8.328a1.645 1.645 0 0 1 2.291 0l16.337 15.99c.304.297.474.7.474 1.12v22.453c0 .875-.725 1.585-1.62 1.585h-81.02c-.894 0-1.6-.469-1.6-1.344V96.802c0-.42.152-.663.455-.96l16.337-15.99a1.645 1.645 0 0 1 2.291 0l8.51 8.328c.304.298.716.465 1.146.465" opacity=".77"/>
        <g transform="translate(53.071 31)">
            <mask id="b" fill="#fff">
                <use xlink:href="#a"/>
            </mask>
            <path fill="#777" d="M-21.66 37.724l-1.272-1.255 95.385-94.192 1.271 1.256z" mask="url(#b)"/>
            <mask id="d" fill="#fff">
                <use xlink:href="#c"/>
            </mask>
            <path fill="#777" d="M-21.66 44.711l-1.272-1.255 95.385-94.192 1.271 1.256z" mask="url(#d)"/>
            <mask id="f" fill="#fff">
                <use xlink:href="#e"/>
            </mask>
            <path fill="#777" d="M-21.66 51.699l-1.272-1.256L72.453-43.75l1.271 1.256z" mask="url(#f)"/>
            <mask id="h" fill="#fff">
                <use xlink:href="#g"/>
            </mask>
            <path fill="#777" d="M-21.66 58.686l-1.272-1.256 95.385-94.191 1.271 1.255z" mask="url(#h)"/>
            <mask id="j" fill="#fff">
                <use xlink:href="#i"/>
            </mask>
            <path fill="#777" d="M-21.66 65.673l-1.272-1.256 95.385-94.191 1.271 1.255z" mask="url(#j)"/>
            <mask id="l" fill="#fff">
                <use xlink:href="#k"/>
            </mask>
            <path fill="#777" d="M-21.66 72.66l-1.272-1.256 95.385-94.191 1.271 1.256z" mask="url(#l)"/>
            <mask id="n" fill="#fff">
                <use xlink:href="#m"/>
            </mask>
            <path fill="#777" d="M-21.66 79.647l-1.272-1.256L72.453-15.8l1.271 1.256z" mask="url(#n)"/>
            <mask id="p" fill="#fff">
                <use xlink:href="#o"/>
            </mask>
            <path fill="#777" d="M-21.66 86.634l-1.272-1.256L72.453-8.813l1.271 1.256z" mask="url(#p)"/>
            <mask id="r" fill="#fff">
                <use xlink:href="#q"/>
            </mask>
            <path fill="#777" d="M-21.66 93.621l-1.272-1.255L72.453-1.826 73.724-.57z" mask="url(#r)"/>
            <mask id="t" fill="#fff">
                <use xlink:href="#s"/>
            </mask>
            <path fill="#777" d="M-21.66 100.608l-1.272-1.255L72.453 5.16l1.271 1.256z" mask="url(#t)"/>
            <mask id="v" fill="#fff">
                <use xlink:href="#u"/>
            </mask>
            <path fill="#777" d="M-21.66 107.596l-1.272-1.256 95.385-94.192 1.271 1.256z" mask="url(#v)"/>
            <mask id="x" fill="#fff">
                <use xlink:href="#w"/>
            </mask>
            <path fill="#777" d="M-21.66 114.583l-1.272-1.256 95.385-94.191 1.271 1.255z" mask="url(#x)"/>
            <mask id="z" fill="#fff">
                <use xlink:href="#y"/>
            </mask>
            <path fill="#777" d="M-21.66 121.57l-1.272-1.256 95.385-94.191 1.271 1.255z" mask="url(#z)"/>
            <mask id="B" fill="#fff">
                <use xlink:href="#A"/>
            </mask>
            <path fill="#777" d="M-21.66 128.557l-1.272-1.256L72.453 33.11l1.271 1.255z" mask="url(#B)"/>
            <mask id="D" fill="#fff">
                <use xlink:href="#C"/>
            </mask>
            <path fill="#777" d="M-21.66 135.544l-1.272-1.256 95.385-94.191 1.271 1.255z" mask="url(#D)"/>
            <mask id="F" fill="#fff">
                <use xlink:href="#E"/>
            </mask>
            <path fill="#777" d="M-21.66 142.531l-1.272-1.256 95.385-94.191 1.271 1.256zM-21.66 149.518l-1.272-1.255L72.453 54.07l1.271 1.256zM-21.66 156.505l-1.272-1.255 95.385-94.192 1.271 1.256zM-21.66 163.492l-1.272-1.255 95.385-94.192 1.271 1.256zM-21.66 170.48l-1.272-1.256 95.385-94.192 1.271 1.256z" mask="url(#F)"/>
        </g>
    </g>
</svg>
