<svg xmlns="http://www.w3.org/2000/svg" viewBox="0 0 159.34 37.12"><defs><style>.cls-1{fill:#0095b3}.cls-2{fill:#fff}</style></defs><g id="Ebene_2" data-name="Ebene 2"><g id="Ebene_1-2" data-name="Ebene 1"><g id="Ebene_2-2" data-name="Ebene 2"><g id="Ebene_1-2-2" data-name="Ebene 1-2"><path class="cls-1" d="M89.09 15.83a9.13 9.13 0 0 1 7.23 3.64l2.12-1.73a11.34 11.34 0 0 0-9.36-4.55c-6.57 0-11 4.35-11 11.86 0 6.12 3.29 11.73 11.09 11.7A11.35 11.35 0 0 0 98.39 32l-2.14-1.69a9.32 9.32 0 0 1-7.16 3.76C83.71 34.1 81 30.6 81 25s2.61-9.19 8-9.21zM41.32 13.17L30.58 36.56h3l2.32-5.28h11l2.38 5.29h3zm-4.2 15.47l4.2-9 4.29 9zM54.94 15.95h7.48v20.62h2.83V15.95h7.46V13.3H54.94v2.65zM122.44 13.31v10.31h-12.57V13.31h-2.83v23.26h2.83V26.28h12.57v10.29h2.83V13.31h-2.83zM18.72 12.22a5.76 5.76 0 0 0 5.9-6.11c0-2.93-1.84-6.11-5.9-6.11s-5.9 3.18-5.9 6.12c0 3.66 2.38 6.11 5.9 6.11zm0-9.78c2.08 0 3.22 1.3 3.22 3.68s-1.14 3.67-3.22 3.67-3.21-1.3-3.21-3.67 1.14-3.68 3.21-3.68zM1.18 13.15v23.47h2.83V20.46l8.29 8.44 1.81-1.87L1.18 13.15zM5.73 12.22a5.92 5.92 0 0 0 4.81-2.39l.07-.11-2-1.55-.08.11a3.79 3.79 0 0 1-2.8 1.49c-2 0-3.1-1.27-3.1-3.65 0-1.66.55-3.66 3.1-3.66A3.6 3.6 0 0 1 8.51 4l.07.12 2-1.6-.07-.1A5.81 5.81 0 0 0 5.73 0C2.18 0 0 2.34 0 6.12c0 4.5 3 6.11 5.73 6.11zM13.37 23.91l1.84 1.98 5.31-5.48v16.21h2.8V13.15l-9.95 10.76z"/></g></g><rect class="cls-1" x="132.34" y="12.86" width="27" height="24.26" rx="3" ry="3"/><path class="cls-2" d="M148 25.54c0 3.53-1.77 5.59-5.13 5.59s-5.1-2.06-5.1-5.57v-7h2.51v6.64c0 2.45.62 3.66 2.59 3.66s2.62-1.21 2.62-3.66v-6.63H148zM150.82 30.86V18.57h2.51v12.29z"/></g></g></svg>