<svg width="54" height="46" viewBox="0 0 54 46" xmlns="http://www.w3.org/2000/svg" xmlns:xlink="http://www.w3.org/1999/xlink"><defs><path d="M25 20h25v20L25 20zm0 0v20H0l25-20zm0 0H0V0l25 20zm0 0V0h25L25 20z" id="a"/></defs><g fill="none" fill-rule="evenodd"><path fill="#00247D" fill-rule="nonzero" d="M2 3v40h50V3z"/><path d="M2 3l50 40m0-40L2 43" stroke="#FFF" stroke-width="6" fill="#000" fill-rule="nonzero"/><g transform="translate(2 3)"><mask id="b" fill="#fff"><use xlink:href="#a"/></mask><path d="M0 0l50 40m0-40L0 40" stroke="#CF142B" stroke-width="4" fill="#000" fill-rule="nonzero" mask="url(#b)"/></g><path d="M27 3v40M2 23h50" stroke="#FFF" stroke-width="10" fill="#000" fill-rule="nonzero"/><path d="M27 3v40M2 23h50" stroke="#CF142B" stroke-width="6" fill="#000" fill-rule="nonzero"/></g></svg>