<svg version="1.1" id="BJ7l3Vo-HtM" xmlns="http://www.w3.org/2000/svg" xmlns:xlink="http://www.w3.org/1999/xlink" x="0px" y="0px" viewBox="0 0 48.1 67.4" style="enable-background:new 0 0 48.1 67.4;">
    <style type="text/css">
        @-webkit-keyframes H1Px2EoZrKM_Animation{0%{opacity: 0.3;}25%{opacity: 1;}75%{opacity: 1;}100%{opacity: 0.3;}}@keyframes H1Px2EoZrKM_Animation{0%{opacity: 0.3;}25%{opacity: 1;}75%{opacity: 1;}100%{opacity: 0.3;}}@-webkit-keyframes S18g3VjbHKG_Animation{0%{opacity: 0.3;}25%{opacity: 1;}75%{opacity: 1;}100%{opacity: 0.3;}}@keyframes S18g3VjbHKG_Animation{0%{opacity: 0.3;}25%{opacity: 1;}75%{opacity: 1;}100%{opacity: 0.3;}}@-webkit-keyframes SyBlnNs-HYG_Animation{0%{opacity: 0.3;}25%{opacity: 1;}75%{opacity: 1;}100%{opacity: 0.3;}}@keyframes SyBlnNs-HYG_Animation{0%{opacity: 0.3;}25%{opacity: 1;}75%{opacity: 1;}100%{opacity: 0.3;}}@-webkit-keyframes BkVl3VsZHKz_Animation{0%{opacity: 0.3;}25%{opacity: 1;}75%{opacity: 1;}100%{opacity: 0.3;}}@keyframes BkVl3VsZHKz_Animation{0%{opacity: 0.3;}25%{opacity: 1;}75%{opacity: 1;}100%{opacity: 0.3;}}#BJ7l3Vo-HtM *{-webkit-animation-duration: 2s;animation-duration: 2s;-webkit-animation-iteration-count: infinite;animation-iteration-count: infinite;-webkit-animation-timing-function: cubic-bezier(0, 0, 1, 1);animation-timing-function: cubic-bezier(0, 0, 1, 1);transform-box: fill-box;-webkit-transform-origin: 50% 50%;transform-origin: 50% 50%;}#BkVl3VsZHKz{fill: #0095b3;-webkit-animation-name: BkVl3VsZHKz_Animation;animation-name: BkVl3VsZHKz_Animation;-webkit-transform-origin: undefined;transform-origin: undefined;}#SyBlnNs-HYG{fill: #0095b3;-webkit-animation-name: SyBlnNs-HYG_Animation;animation-name: SyBlnNs-HYG_Animation;-webkit-transform-origin: undefined;transform-origin: undefined;}#S18g3VjbHKG{fill: #0095b3;-webkit-animation-name: S18g3VjbHKG_Animation;animation-name: S18g3VjbHKG_Animation;-webkit-transform-origin: undefined;transform-origin: undefined;}#H1Px2EoZrKM{fill: #0095b3;-webkit-animation-name: H1Px2EoZrKM_Animation;animation-name: H1Px2EoZrKM_Animation;-webkit-transform-origin: undefined;transform-origin: undefined;}
    </style>
    <path d="M34.7,22.5c5.5,0,9.3-4,9.3-9.6c0-4.6-2.9-9.6-9.3-9.6c-6.4,0-9.3,5-9.3,9.6C25.5,18.6,29.2,22.5,34.7,22.5&#10;&#9;L34.7,22.5z M34.7,7.1c3.3,0,5.1,2.1,5.1,5.8c0,3.7-1.8,5.8-5.1,5.8c-3.3,0-5.1-2.1-5.1-5.8C29.7,9.2,31.5,7.1,34.7,7.1L34.7,7.1z" id="BkVl3VsZHKz"/>
    <polygon points="7.2,24 7.2,60.8 11.6,60.8 11.6,35.4 24.7,48.7 27.5,45.8 7.2,24 " id="SyBlnNs-HYG"/>
    <path d="M14.3,22.5c3,0,5.8-1.4,7.6-3.8l0.1-0.2l-3.1-2.5l-0.1,0.2c-0.9,1.3-2.8,2.3-4.4,2.3c-3.1,0-4.9-2-4.9-5.7&#10;&#9;c0-2.6,0.8-5.7,4.9-5.7c1.6,0,3.5,1,4.4,2.3l0.1,0.2L22,7.2L21.8,7c-1.7-2.4-4.4-3.7-7.6-3.7c-5.5,0-9,3.7-9,9.6&#10;&#9;C5.3,20,10,22.5,14.3,22.5L14.3,22.5z" id="S18g3VjbHKG"/>
    <polygon points="26.3,40.9 29.2,44 37.6,35.4 37.6,60.8 42,60.8 42,24 26.3,40.9 " id="H1Px2EoZrKM"/>
</svg>